<svg width="32" height="32" viewBox="0 0 32 32" fill="none" xmlns="http://www.w3.org/2000/svg">
  <!-- Background circle -->
  <circle cx="16" cy="16" r="16" fill="url(#gradient)"/>
  
  <!-- Bank/Document icon -->
  <rect x="8" y="10" width="16" height="12" rx="2" fill="white" opacity="0.9"/>
  <rect x="10" y="12" width="12" height="1" fill="#7C3AED"/>
  <rect x="10" y="14" width="8" height="1" fill="#7C3AED"/>
  <rect x="10" y="16" width="10" height="1" fill="#7C3AED"/>
  <rect x="10" y="18" width="6" height="1" fill="#7C3AED"/>
  
  <!-- Euro symbol -->
  <circle cx="20" cy="8" r="4" fill="#4F46E5"/>
  <path d="M18.5 6.5C18.5 6.5 19.5 6 20.5 6C21.5 6 22.5 6.5 22.5 6.5M18.5 9.5C18.5 9.5 19.5 10 20.5 10C21.5 10 22.5 9.5 22.5 9.5M18 7.5H22M18 8.5H22" stroke="white" stroke-width="0.8" fill="none"/>
  
  <defs>
    <linearGradient id="gradient" x1="0%" y1="0%" x2="100%" y2="100%">
      <stop offset="0%" style="stop-color:#7C3AED;stop-opacity:1" />
      <stop offset="100%" style="stop-color:#4F46E5;stop-opacity:1" />
    </linearGradient>
  </defs>
</svg>